<mxfile host="app.diagrams.net" modified="2022-06-09T00:43:06.854Z" agent="5.0 (Windows NT 10.0; Win64; x64) AppleWebKit/537.36 (KHTML, like Gecko) Chrome/102.0.0.0 Safari/537.36" etag="tmTNMdQdY6OivYxtRwKh" version="19.0.3" type="github">
  <diagram id="jAwHWV7zoyLVhlkX6k6m" name="Page-1">
    <mxGraphModel dx="1422" dy="762" grid="1" gridSize="10" guides="1" tooltips="1" connect="1" arrows="1" fold="1" page="1" pageScale="1" pageWidth="827" pageHeight="1169" math="0" shadow="0">
      <root>
        <mxCell id="0" />
        <mxCell id="1" parent="0" />
        <object label="USUÁRIO" id="x92N0MeoW_DuO3bZxoaV-2">
          <mxCell style="shape=umlActor;verticalLabelPosition=bottom;verticalAlign=top;html=1;outlineConnect=0;" vertex="1" parent="1">
            <mxGeometry x="140" y="320" width="30" height="60" as="geometry" />
          </mxCell>
        </object>
        <mxCell id="x92N0MeoW_DuO3bZxoaV-10" value="" style="ellipse;whiteSpace=wrap;html=1;" vertex="1" parent="1">
          <mxGeometry x="260" y="310" width="120" height="80" as="geometry" />
        </mxCell>
      </root>
    </mxGraphModel>
  </diagram>
</mxfile>
